<?xml version="1.0" encoding="UTF-8" standalone="no"?>
<!-- Created with Inkscape (http://www.inkscape.org/) -->

<svg
   width="1600mm"
   height="800mm"
   viewBox="0 0 1600 800"
   version="1.1"
   id="svg1"
   inkscape:version="1.4.3 (0d15f75, 2025-12-25)"
   sodipodi:docname="drawing.svg"
   inkscape:export-filename="drawing.png"
   inkscape:export-xdpi="96"
   inkscape:export-ydpi="96"
   inkscape:export-batch-name="drawing"
   inkscape:export-batch-path="assets/ball.png"
   xmlns:inkscape="http://www.inkscape.org/namespaces/inkscape"
   xmlns:sodipodi="http://sodipodi.sourceforge.net/DTD/sodipodi-0.dtd"
   xmlns="http://www.w3.org/2000/svg"
   xmlns:svg="http://www.w3.org/2000/svg">
  <sodipodi:namedview
     id="namedview1"
     pagecolor="#ffffff"
     bordercolor="#000000"
     borderopacity="0.25"
     inkscape:showpageshadow="2"
     inkscape:pageopacity="0.0"
     inkscape:pagecheckerboard="0"
     inkscape:deskcolor="#d1d1d1"
     inkscape:document-units="mm"
     inkscape:zoom="0.56348278"
     inkscape:cx="678.814"
     inkscape:cy="518.20572"
     inkscape:window-width="1512"
     inkscape:window-height="921"
     inkscape:window-x="0"
     inkscape:window-y="33"
     inkscape:window-maximized="1"
     inkscape:current-layer="layer1" />
  <defs
     id="defs1">
    <inkscape:path-effect
       effect="rough_hatches"
       id="path-effect22"
       is_visible="true"
       lpeversion="1.2"
       direction="204.5184,88.903389 , 10.528222,7.9823499"
       dist_rdm="75;1"
       growth="0"
       do_bend="true"
       bender="204.5184,93.903389 , 5,0"
       bottom_edge_variation="4.774749;1"
       top_edge_variation="4.774749;1"
       bottom_tgt_variation="0;1"
       top_tgt_variation="0;1"
       scale_bf="1"
       scale_bb="1"
       scale_tf="1"
       scale_tb="1"
       top_smth_variation="0;1"
       bottom_smth_variation="0;1"
       fat_output="true"
       stroke_width_top="1"
       stroke_width_bottom="1"
       front_thickness="1"
       back_thickness="0.25" />
    <inkscape:path-effect
       effect="rough_hatches"
       id="path-effect21"
       is_visible="true"
       lpeversion="1.2"
       direction="43.415362,114.44418 , 4.6445563,22.206201"
       dist_rdm="75;1"
       growth="0"
       do_bend="false"
       bender="43.415362,119.44418 , 5,0"
       bottom_edge_variation="5;1"
       top_edge_variation="5;1373743857"
       bottom_tgt_variation="0;1588387430"
       top_tgt_variation="0;1740078047"
       scale_bf="1"
       scale_bb="1"
       scale_tf="1"
       scale_tb="1"
       top_smth_variation="0;1"
       bottom_smth_variation="0;1"
       fat_output="true"
       stroke_width_top="0"
       stroke_width_bottom="1.1"
       front_thickness="2.1"
       back_thickness="2.3" />
    <inkscape:path-effect
       effect="roughen"
       id="path-effect1"
       is_visible="true"
       lpeversion="1.2"
       global_randomize="1;2071986174"
       displace_x="0;1459617790"
       displace_y="1.6;1476395006"
       method="size"
       max_segment_size="0.0105833"
       segments="5"
       handles="along"
       shift_nodes="true"
       fixed_displacement="false"
       spray_tool_friendly="false" />
    <filter
       inkscape:label="Chalk and Sponge"
       inkscape:menu="Distort"
       inkscape:menu-tooltip="Low turbulence gives sponge look and high turbulence chalk"
       width="37.112686"
       height="1.1325701"
       y="-0.066285037"
       x="-18.056343"
       style="color-interpolation-filters:sRGB"
       id="filter16">
      <feTurbulence
         baseFrequency="0.4"
         type="fractalNoise"
         seed="0"
         numOctaves="5"
         result="result1"
         id="feTurbulence16" />
      <feDisplacementMap
         xChannelSelector="R"
         yChannelSelector="G"
         scale="30"
         in="SourceGraphic"
         in2="result1"
         id="feDisplacementMap16" />
    </filter>
    <filter
       inkscape:label="Chalk and Sponge"
       inkscape:menu="Distort"
       inkscape:menu-tooltip="Low turbulence gives sponge look and high turbulence chalk"
       width="1"
       height="1"
       y="0"
       x="0"
       style="color-interpolation-filters:sRGB"
       id="filter17">
      <feTurbulence
         baseFrequency="0.4"
         type="fractalNoise"
         seed="0"
         numOctaves="5"
         result="result1"
         id="feTurbulence17" />
      <feDisplacementMap
         xChannelSelector="R"
         yChannelSelector="G"
         scale="30"
         in="SourceGraphic"
         in2="result1"
         id="feDisplacementMap17" />
    </filter>
    <filter
       inkscape:label="Chalk and Sponge"
       inkscape:menu="Distort"
       inkscape:menu-tooltip="Low turbulence gives sponge look and high turbulence chalk"
       width="1"
       height="1"
       y="0"
       x="0"
       style="color-interpolation-filters:sRGB"
       id="filter18">
      <feTurbulence
         baseFrequency="0.4"
         type="fractalNoise"
         seed="0"
         numOctaves="5"
         result="result1"
         id="feTurbulence18" />
      <feDisplacementMap
         xChannelSelector="R"
         yChannelSelector="G"
         scale="30"
         in="SourceGraphic"
         in2="result1"
         id="feDisplacementMap18" />
    </filter>
    <filter
       inkscape:label="Chalk and Sponge"
       inkscape:menu="Distort"
       inkscape:menu-tooltip="Low turbulence gives sponge look and high turbulence chalk"
       width="1.1099284"
       height="1.0835305"
       y="-0.041800493"
       x="-0.054964221"
       style="color-interpolation-filters:sRGB"
       id="filter20">
      <feTurbulence
         baseFrequency="1.6162230769230772"
         type="fractalNoise"
         seed="0"
         numOctaves="2"
         result="result1"
         id="feTurbulence20" />
      <feDisplacementMap
         xChannelSelector="R"
         yChannelSelector="G"
         scale="5"
         id="feDisplacementMap20"
         in2="result1"
         in="SourceGraphic" />
    </filter>
  </defs>
  <g
     inkscape:label="Layer 1"
     inkscape:groupmode="layer"
     id="layer1">
    <path
       style="fill:none;fill-opacity:1;stroke:#000000;stroke-width:4;stroke-linecap:round;stroke-linejoin:round;stroke-dasharray:none;stroke-opacity:1;paint-order:markers fill stroke;filter:url(#filter20)"
       id="rect21"
       width="31.990267"
       height="155.79675"
       x="27.420229"
       y="41.545803"
       ry="12.395149"
       inkscape:path-effect="#path-effect21"
       sodipodi:type="rect"
       d="m 46.002513,197.34256 c 0,0 6.989852,-0.28709 11.185692,-5.18697 4.089269,-4.77542 -26.532344,1.62927 -28.067468,-0.82931 -1.478702,-2.36821 31.570636,-9.28067 31.570636,-13.982 0,-4.59916 -35.431429,2.81153 -35.431429,2.73442 0,0.0251 33.194673,-6.9178 33.194673,-10.43761 0,-3.41765 -32.735851,3.42925 -32.735851,1.2064 0,-2.12069 31.799091,-8.77165 31.799091,-13.4594 0,-4.58558 -28.453517,1.36564 -28.453517,-1.59056 0,-2.85404 28.03293,-8.71729 28.03293,-11.38152 0,-2.56207 -29.715276,3.65305 -29.715276,3.10062 0,-0.45026 33.462319,-7.4491 33.462319,-11.26768 0,-3.71642 -34.800549,3.56231 -34.800549,2.90124 0,-0.55891 33.137321,-7.48978 33.137321,-11.14539 0,-3.55346 -33.443202,3.44138 -33.443202,0.86544 0,-2.47378 35.66084,-9.93246 35.66084,-14.11772 0,-4.0831 -36.387307,3.52752 -36.387307,3.05658 0,-0.36879 34.035846,-7.48758 34.035846,-9.55426 0,-1.96452 -30.460862,4.40655 -30.460862,4.66896 0,0.36457 31.818209,-6.29039 31.818209,-10.10898 0,-3.716418 -32.009384,2.97853 -32.009384,2.33104 0,-0.54533 28.893221,-6.588519 28.893221,-8.981135 0,-2.290453 -30.327039,4.052625 -30.327039,4.315035 0,0.36457 33.079968,-6.554297 33.079968,-8.919752 0,-2.263291 -31.799091,4.387674 -31.799091,4.813051 0,0.527541 32.716735,-6.315355 32.716735,-9.264777 0,-2.847259 -33.768201,4.215557 -33.768201,1.381578 0,-2.731814 33.863788,-9.814623 33.863788,-13.022078 0,-3.105291 -35.507898,4.321393 -35.507898,1.908415 0,-2.310815 33.194673,-9.253674 33.194673,-12.854968 0,-3.49913 -32.296148,3.255798 -32.296148,3.654013 0,0.500379 34.934372,-6.806348 34.934372,-10.638513 0,-3.73 -32.869675,3.144884 -32.869675,1.655389 0,-1.38733 29.808479,-7.621947 28.679937,-10.118039 -1.086343,-2.402753 -27.627829,3.148553 -27.603128,2.944054 0.01204,-0.09969 25.634894,-5.458857 22.061399,-7.796668 -3.455163,-2.260398 -18.426633,0.870972 -17.875915,0.366324 0.406253,-0.372268 7.553235,-3.041986 7.553235,-3.041986 0,0 -3.824297,-0.375011 -7.553235,3.041986 -3.584474,3.284618 15.829028,-0.77583 16.799214,-0.141126 0.851852,0.55729 -20.681475,5.06111 -20.984698,7.57147 -0.290563,2.405548 26.326286,-3.161521 26.526426,-2.718855 0.15794,0.349328 -27.603235,6.15574 -27.603235,9.89284 0,3.634936 31.792974,-3.014749 31.792974,-1.43019 0,1.482395 -33.857671,8.563924 -33.857671,10.413314 0,1.747226 31.219447,-4.782503 31.219447,-3.428815 0,1.251524 -32.117972,7.969185 -32.117972,12.62977 0,4.55842 34.431197,-2.643066 34.431197,-1.683217 0,0.857686 -32.787087,7.715296 -32.787087,12.79688 0,4.97942 32.691499,-1.858197 32.691499,-1.15638 0,0.599653 -31.640033,7.21735 -31.640033,9.039579 0,1.720065 30.72239,-4.705702 30.72239,-4.587852 0,0.01569 -32.003267,6.709354 -32.003267,8.694553 0,1.88303 29.250338,-4.234847 29.250338,-4.089837 0,0.04285 -27.81652,5.860837 -27.81652,8.755937 0,2.79293 30.932683,-3.67682 30.932683,-2.10584 0,1.46881 -30.741508,7.89858 -30.741508,9.88378 0,1.88303 29.384161,-4.26284 29.384161,-4.44376 0,-0.28309 -32.959145,6.6105 -32.959145,9.32906 0,2.61638 35.310605,-4.76903 35.310605,-2.83138 0,1.83549 -34.584138,9.06897 -34.584138,13.89252 0,4.72139 32.366501,-2.04826 32.366501,-0.64024 0,1.30584 -32.06062,8.01151 -32.06062,10.92019 0,2.80651 33.723848,-4.24702 33.723848,-2.67605 0,1.46882 -32.385618,8.24246 -32.385618,11.04249 0,2.69788 28.638575,-3.29205 28.638575,-2.87543 0,0.31446 -26.956229,5.95252 -26.956229,11.15633 0,5.10164 27.376815,-0.62438 27.376815,1.81576 0,2.33798 -30.722389,8.76374 -30.722389,13.2342 0,4.36829 31.65915,-2.25341 31.65915,-0.9812 0,1.17004 -32.117972,7.8877 -32.117972,10.21241 0,2.22255 34.354727,-4.96294 34.354727,-2.50922 0,2.35156 -33.270346,9.31024 -30.493934,13.7568 2.719989,4.3562 28.842026,-1.10738 26.990767,1.05451 -1.744687,2.03744 -10.108991,4.96177 -10.108991,4.96177 z"
       transform="translate(-23.011416,-39.546146)" />
    <path
       style="fill:none;fill-opacity:1;stroke:#000000;stroke-width:4;stroke-linecap:round;stroke-linejoin:round;stroke-dasharray:none;stroke-opacity:1;paint-order:markers fill stroke;filter:url(#filter20)"
       id="path21"
       inkscape:path-effect="#path-effect22"
       sodipodi:type="arc"
       sodipodi:cx="204.5184"
       sodipodi:cy="93.903389"
       sodipodi:rx="23.873745"
       sodipodi:ry="23.873745"
       d="m 227.81846,99.105606 c 0,0 -3.40031,4.155404 -7.20076,8.394684 -3.79584,4.23415 -7.98789,8.54189 -8.9448,8.8363 -1.27642,0.39272 3.09683,-5.23548 7.4413,-11.36329 4.37793,-6.175001 8.61947,-12.708083 8.34973,-14.361047 -0.30342,-1.859301 -6.27053,5.105215 -12.85292,12.520137 -6.57714,7.40899 -13.82383,15.25062 -14.65491,15.1159 -1.03744,-0.16817 5.6973,-8.64306 12.01328,-17.17102 6.31598,-8.527965 12.20551,-17.109007 11.98707,-17.48949 -0.3234,-0.563301 -6.61162,7.781624 -13.54812,16.22926 -6.9365,8.44764 -14.53717,16.99798 -14.93135,16.84553 -0.57086,-0.22079 6.84379,-9.3095 13.50449,-18.534305 6.66069,-9.224807 12.54658,-18.585712 11.81878,-19.350895 -0.84673,-0.890205 -7.22224,7.257604 -14.15602,15.576407 -6.91861,8.300613 -14.4008,16.717643 -14.9754,16.274923 -0.71802,-0.55322 6.63313,-10.13064 13.09487,-19.708003 6.46173,-9.57736 12.03405,-19.154656 10.87877,-19.707616 -1.33418,-0.638588 -8.07822,8.312465 -15.2407,17.386933 -7.16249,9.074468 -14.76392,18.272356 -14.86486,18.127426 -0.20941,-0.30066 6.83554,-9.246407 13.09947,-18.14978 6.26393,-8.903373 11.7533,-17.764376 11.17968,-17.895555 -0.77821,-0.177966 -6.83586,8.375167 -13.40326,16.846111 -6.56739,8.470945 -13.63182,16.859704 -13.85732,16.352974 -0.30946,-0.69542 5.79502,-8.888471 11.23738,-16.904064 5.44236,-8.015593 10.24648,-15.853728 9.53841,-15.839317 -0.94656,0.01926 -6.11719,7.155917 -11.52256,14.136684 -5.40536,6.980768 -11.02557,13.805652 -11.12888,13.201383 -0.13746,-0.804037 4.60605,-7.535998 8.48878,-13.699859 3.90942,-6.206215 7.07721,-12.00601 5.11641,-11.157482 -2.25966,0.977858 -5.43804,4.697814 -8.11645,8.14655 -2.68306,3.45473 -4.88861,6.667413 -4.88861,6.667413 0,0 2.51234,-3.204982 5.2804,-6.555652 2.76444,-3.346302 5.80867,-6.864592 7.19,-7.461453 1.74264,-0.752979 -1.47033,4.9642 -5.35298,11.105203 -3.85562,6.098263 -8.50135,12.783234 -8.33909,13.752138 0.21439,1.280186 6.20848,-5.58092 11.76387,-12.715308 5.56697,-7.149265 10.67253,-14.616438 10.98312,-14.622759 0.54911,-0.01118 -4.3183,7.764061 -9.76186,15.747395 -5.41202,7.93707 -11.47052,16.221028 -11.12837,16.995988 0.45681,1.03465 7.84481,-7.341181 14.50963,-15.882004 6.68411,-8.565552 12.63454,-17.370283 12.86698,-17.317083 0.43688,0.09999 -5.12509,8.90908 -11.40279,17.794296 -6.27769,8.885215 -13.28265,17.846551 -13.00234,18.251041 0.38822,0.56021 8.26442,-8.523504 15.51245,-17.644708 7.24802,-9.121205 13.86155,-18.279901 14.71724,-17.869653 1.03428,0.495875 -4.62158,10.036338 -11.10957,19.609554 -6.48799,9.573217 -13.81328,19.179187 -13.00184,19.806067 0.95446,0.73738 8.63602,-7.4887 15.58542,-15.767502 6.9494,-8.278801 13.15839,-16.610324 13.65733,-16.08383 0.63465,0.669707 -5.34083,10.007836 -12.03922,19.245123 -6.69839,9.237289 -14.10418,18.373729 -13.41647,18.640069 0.86414,0.33467 8.6109,-7.97191 15.53525,-16.34322 6.92436,-8.371314 13.01658,-16.807345 13.05982,-16.731561 0.14757,0.258602 -5.83628,8.828494 -12.19775,17.381351 -6.36148,8.55286 -13.09809,17.08869 -11.92374,17.27916 1.3806,0.22392 8.67746,-7.27178 15.17828,-14.53011 6.51591,-7.275173 12.24145,-14.262472 12.42614,-13.105928 0.2363,1.479703 -4.1245,8.046148 -8.56995,14.280468 -4.41201,6.18744 -8.80201,11.90212 -7.31099,11.44387 1.83294,-0.56333 6.17622,-5.05672 9.93422,-9.43133 3.75642,-4.37277 6.89531,-8.596514 6.89531,-8.596514 z"
       transform="translate(-5.1650499,-14.976535)" />
  </g>
</svg>
